<svg xmlns="http://www.w3.org/2000/svg" viewBox="0 0 354.02 151.45"><defs><style>.a,.c,.d,.e{fill:#00adee;}.a{fill-opacity:0;}.b{fill:#333;}.c,.d{isolation:isolate;}.c{opacity:0.6;}.d{opacity:0.8;}</style></defs><rect class="a" width="151.45" height="151.45"/><path class="b" d="M223.87,348.2,223,348l18.08-94.37h55.55v.9H241.81Zm132.5.36H300.81v-.9h54.81L373.56,254l.88.18-18.07,94.36Z" transform="translate(-222.99 -224.27)"/><path class="c" d="M298.85,270.66c-2.67,0-4.8,2.4-5.07,5.07a5.25,5.25,0,0,0,5.07,5.07,5.07,5.07,0,0,0,5.07-5.07A5.25,5.25,0,0,0,298.85,270.66Z" transform="translate(-222.99 -224.27)"/><path class="c" d="M245.27,262l-18,94H340.14l18-94Zm85.58,66.54-4.53-4.8c-4,4.8-13.07,13.6-27.47,13.6s-23.47-8.8-27.74-13.87l-4.53,4.8-2.67-18.4,18.14,2.66-5.34,5.34c2.67,3.2,8.54,9.6,18.14,10.93V304.27h-10.4a4,4,0,0,1,0-8h10.4v-8a13.34,13.34,0,0,1-8.8-12.54,13,13,0,0,1,12.8-13.07,12.65,12.65,0,0,1,12.54,13.07,13.09,13.09,0,0,1-8.81,12.54v8H313a4,4,0,0,1,0,8H302.58V328.8c9.61-1.33,15.74-7.73,18.14-10.93l-5.33-5.34,18.13-2.4Z" transform="translate(-222.99 -224.27)"/><path class="d" d="M298.85,270.66c-2.67,0-4.8,2.4-5.07,5.07a5.25,5.25,0,0,0,5.07,5.07,5.07,5.07,0,0,0,5.07-5.07A5.25,5.25,0,0,0,298.85,270.66Z" transform="translate(-222.99 -224.27)"/><path class="d" d="M252.47,244l-18,94H347.35l18-94Zm78.38,84.55-4.53-4.8c-4,4.8-13.07,13.6-27.47,13.6s-23.47-8.8-27.74-13.87l-4.53,4.8-2.67-18.4,18.14,2.66-5.34,5.34c2.67,3.2,8.54,9.6,18.14,10.93V304.27h-10.4a4,4,0,0,1,0-8h10.4v-8a13.34,13.34,0,0,1-8.8-12.54,13,13,0,0,1,12.8-13.07,12.65,12.65,0,0,1,12.54,13.07,13.09,13.09,0,0,1-8.81,12.54v8H313a4,4,0,0,1,0,8H302.58V328.8c9.61-1.33,15.74-7.73,18.14-10.93l-5.33-5.34,18.13-2.4Z" transform="translate(-222.99 -224.27)"/><path class="e" d="M436,271.88H396.82l-3.15,31H425l-1.77,17.32H390.92l1.08,7.88h38.3L433.74,295H402.56l1.53-15.25h23.23l-.48,4.38h7.89Zm0,56.24L440.19,289h36.16l-3,27.67-.47,11.41h-7l-.17-3.91-8.12,3.91ZM447.39,297l-2.55,23.23h13.58l7-3.6,2-19.63Zm34.09-17.15h7.95l.85-8h-7.95Zm2.82,48.26,4.76-44.36H481l-4.66,44.36Zm11.82-56.24-5.84,56.24h12.56l2.69-7.88H499.1l5-48.36Zm9.41,56.24L509.6,289h35.62L541,328.12ZM516.87,297l-2.52,23.23h19.53L536.33,297Zm50-8H577l-22.07,22.23-1.77,16.85h-7.95l4-39.08h8l-1.15,11.12Z" transform="translate(-222.99 -224.27)"/></svg>